<?xml version="1.0" encoding="UTF-8"?>
<svg width="64px" height="64px" viewBox="0 0 64 64" version="1.1" xmlns="http://www.w3.org/2000/svg" xmlns:xlink="http://www.w3.org/1999/xlink">
    <!-- Generator: Sketch 52.3 (67297) - http://www.bohemiancoding.com/sketch -->
    <title>cms-icon</title>
    <desc>Created with Sketch.</desc>
    <g id="cms-icon" stroke="none" stroke-width="1" fill="none" fill-rule="evenodd">
        <path d="M7,1 C5.347656,1 4,2.347656 4,4 L4,56 C4,57.652344 5.347656,59 7,59 L10,59 L10,60 C10,61.652344 11.347656,63 13,63 C14.652344,63 16,61.652344 16,60 L16,59 L48,59 L48,60 C48,61.652344 49.347656,63 51,63 C52.652344,63 54,61.652344 54,60 L54,59 L57,59 C58.652344,59 60,57.652344 60,56 L60,4 C60,2.347656 58.652344,1 57,1 L7,1 Z M7,3 L57,3 C57.550781,3 58,3.449219 58,4 L58,56 C58,56.550781 57.550781,57 57,57 L7,57 C6.449219,57 6,56.550781 6,56 L6,4 C6,3.449219 6.449219,3 7,3 Z M9,5 C8.449219,5 8,5.449219 8,6 L8,8 C8,8.550781 8.449219,9 9,9 C9.550781,9 10,8.550781 10,8 L10,6 C10,5.449219 9.550781,5 9,5 Z M14,5 C13.449219,5 13,5.449219 13,6 L13,8 C13,8.550781 13.449219,9 14,9 C14.550781,9 15,8.550781 15,8 L15,6 C15,5.449219 14.550781,5 14,5 Z M19,5 C18.449219,5 18,5.449219 18,6 L18,8 C18,8.550781 18.449219,9 19,9 C19.550781,9 20,8.550781 20,8 L20,6 C20,5.449219 19.550781,5 19,5 Z M24,5 C23.449219,5 23,5.449219 23,6 L23,8 C23,8.550781 23.449219,9 24,9 C24.550781,9 25,8.550781 25,8 L25,6 C25,5.449219 24.550781,5 24,5 Z M29,5 C28.449219,5 28,5.449219 28,6 L28,8 C28,8.550781 28.449219,9 29,9 C29.550781,9 30,8.550781 30,8 L30,6 C30,5.449219 29.550781,5 29,5 Z M35,5 C34.449219,5 34,5.449219 34,6 L34,8 C34,8.550781 34.449219,9 35,9 C35.550781,9 36,8.550781 36,8 L36,6 C36,5.449219 35.550781,5 35,5 Z M40,5 C39.449219,5 39,5.449219 39,6 L39,8 C39,8.550781 39.449219,9 40,9 C40.550781,9 41,8.550781 41,8 L41,6 C41,5.449219 40.550781,5 40,5 Z M45,5 C44.449219,5 44,5.449219 44,6 L44,8 C44,8.550781 44.449219,9 45,9 C45.550781,9 46,8.550781 46,8 L46,6 C46,5.449219 45.550781,5 45,5 Z M50,5 C49.449219,5 49,5.449219 49,6 L49,8 C49,8.550781 49.449219,9 50,9 C50.550781,9 51,8.550781 51,8 L51,6 C51,5.449219 50.550781,5 50,5 Z M55,5 C54.449219,5 54,5.449219 54,6 L54,8 C54,8.550781 54.449219,9 55,9 C55.550781,9 56,8.550781 56,8 L56,6 C56,5.449219 55.550781,5 55,5 Z M13,13 C11.347656,13 10,14.347656 10,16 L10,26 C10,27.652344 11.347656,29 13,29 L51,29 C52.652344,29 54,27.652344 54,26 L54,16 C54,14.347656 52.652344,13 51,13 L13,13 Z M13,15 L51,15 C51.550781,15 52,15.449219 52,16 L52,26 C52,26.550781 51.550781,27 51,27 L13,27 C12.449219,27 12,26.550781 12,26 L12,16 C12,15.449219 12.449219,15 13,15 Z M27,19 C26.449219,19 26,19.449219 26,20 C26,21.652344 27.347656,23 29,23 L35,23 C36.652344,23 38,21.652344 38,20 C38,19.449219 37.550781,19 37,19 C36.449219,19 36,19.449219 36,20 C36,20.550781 35.550781,21 35,21 L29,21 C28.449219,21 28,20.550781 28,20 C28,19.449219 27.550781,19 27,19 Z M13,33 C11.347656,33 10,34.347656 10,36 L10,46 C10,47.652344 11.347656,49 13,49 L51,49 C52.652344,49 54,47.652344 54,46 L54,36 C54,34.347656 52.652344,33 51,33 L13,33 Z M13,35 L51,35 C51.550781,35 52,35.449219 52,36 L52,46 C52,46.550781 51.550781,47 51,47 L13,47 C12.449219,47 12,46.550781 12,46 L12,36 C12,35.449219 12.449219,35 13,35 Z M27,39 C26.449219,39 26,39.449219 26,40 C26,41.652344 27.347656,43 29,43 L35,43 C36.652344,43 38,41.652344 38,40 C38,39.449219 37.550781,39 37,39 C36.449219,39 36,39.449219 36,40 C36,40.550781 35.550781,41 35,41 L29,41 C28.449219,41 28,40.550781 28,40 C28,39.449219 27.550781,39 27,39 Z M9,53 C8.449219,53 8,53.449219 8,54 C8,54.550781 8.449219,55 9,55 L47,55 C47.550781,55 48,54.550781 48,54 C48,53.449219 47.550781,53 47,53 L9,53 Z M51,53 C50.449219,53 50,53.449219 50,54 C50,54.550781 50.449219,55 51,55 L55,55 C55.550781,55 56,54.550781 56,54 C56,53.449219 55.550781,53 55,53 L51,53 Z M12,59 L14,59 L14,60 C14,60.550781 13.550781,61 13,61 C12.449219,61 12,60.550781 12,60 L12,59 Z M50,59 L52,59 L52,60 C52,60.550781 51.550781,61 51,61 C50.449219,61 50,60.550781 50,60 L50,59 Z" id="icon" fill="#151515" fill-rule="nonzero"></path>
    </g>
</svg>