<?xml version="1.0" encoding="UTF-8"?>
<svg width="64px" height="64px" viewBox="0 0 64 64" version="1.1" xmlns="http://www.w3.org/2000/svg" xmlns:xlink="http://www.w3.org/1999/xlink">
    <!-- Generator: Sketch 52.3 (67297) - http://www.bohemiancoding.com/sketch -->
    <title>support-icon</title>
    <desc>Created with Sketch.</desc>
    <g id="support-icon" stroke="none" stroke-width="1" fill="none" fill-rule="evenodd">
        <path d="M27.5,3.171875 C12.339844,3.171875 0,13.050781 0,25.1875 C0,32.800781 4.75,39.710938 12.738281,43.769531 C12.582031,45.769531 12.03125,49.039063 10.1875,52.089844 C9.988281,52.429688 10.011719,52.859375 10.238281,53.1875 C10.429688,53.449219 10.730469,53.597656 11.050781,53.597656 C11.121094,53.597656 11.199219,53.601563 11.269531,53.578125 C17.691406,52.148438 20.761719,48.519531 21.910156,46.75 C23.25,46.96875 24.597656,47.109375 25.949219,47.171875 C29.179688,52.570313 36.058594,56.3125 44,56.3125 C45.289063,56.3125 46.589844,56.210938 47.871094,56 C48.789063,57.359375 51.050781,59.871094 55.578125,60.871094 C55.648438,60.890625 55.71875,60.902344 55.789063,60.902344 C56.109375,60.902344 56.410156,60.75 56.597656,60.480469 C56.839844,60.160156 56.859375,59.722656 56.652344,59.378906 C55.402344,57.300781 55.011719,55.039063 54.878906,53.730469 C60.609375,50.75 64,45.75 64,40.238281 C64,34.609375 60.378906,29.648438 54.921875,26.78125 C54.980469,26.257813 55,25.730469 55,25.1875 C55,13.050781 42.660156,3.171875 27.5,3.171875 Z M27.5,5.171875 C41.558594,5.171875 53,14.148438 53,25.1875 C53,25.417969 52.992188,25.660156 52.980469,25.890625 C50.28125,24.789063 47.230469,24.171875 44,24.171875 C32.96875,24.171875 24,31.378906 24,40.238281 C24,41.929688 24.328125,43.570313 24.9375,45.097656 C23.820313,45.007813 22.699219,44.859375 21.589844,44.660156 C21.167969,44.582031 20.738281,44.78125 20.53125,45.160156 C19.980469,46.179688 17.921875,49.300781 12.988281,51.019531 C14.351563,47.910156 14.699219,44.910156 14.769531,43.21875 C14.789063,42.820313 14.570313,42.441406 14.210938,42.269531 C6.5625,38.589844 2,32.210938 2,25.1875 C2,14.148438 13.441406,5.171875 27.5,5.171875 Z M27.484375,7.835938 C26.730469,7.84375 25.96875,7.882813 25.222656,7.949219 C24.675781,8 24.265625,8.484375 24.316406,9.035156 C24.367188,9.585938 24.851563,9.996094 25.402344,9.941406 C26.09375,9.878906 26.800781,9.84375 27.503906,9.839844 C31.070313,9.773438 34.660156,10.519531 37.769531,11.910156 C37.90625,11.972656 38.042969,12 38.183594,12 C38.5625,12 38.929688,11.777344 39.09375,11.40625 C39.320313,10.902344 39.09375,10.3125 38.589844,10.085938 C35.21875,8.578125 31.378906,7.816406 27.484375,7.835938 Z M41.8125,12.175781 C41.558594,12.21875 41.324219,12.359375 41.164063,12.582031 C40.84375,13.03125 40.949219,13.65625 41.394531,13.980469 C41.933594,14.363281 42.449219,14.773438 42.933594,15.199219 C43.121094,15.367188 43.359375,15.453125 43.59375,15.453125 C43.871094,15.453125 44.144531,15.339844 44.34375,15.113281 C44.710938,14.703125 44.671875,14.070313 44.261719,13.703125 C43.726563,13.230469 43.152344,12.773438 42.558594,12.347656 C42.332031,12.191406 42.066406,12.136719 41.8125,12.175781 Z M18,18 C16.894531,18 16,18.894531 16,20 C16,21.105469 16.894531,22 18,22 C19.105469,22 20,21.105469 20,20 C20,18.894531 19.105469,18 18,18 Z M36,18 C34.894531,18 34,18.894531 34,20 C34,21.105469 34.894531,22 36,22 C37.105469,22 38,21.105469 38,20 C38,18.894531 37.105469,18 36,18 Z M44,26.171875 C47.179688,26.171875 50.167969,26.820313 52.761719,27.949219 C53.398438,28.238281 54.019531,28.539063 54.597656,28.878906 C59.089844,31.441406 62,35.582031 62,40.238281 C62,45.160156 58.789063,49.640625 53.410156,52.230469 C53.050781,52.410156 52.820313,52.78125 52.839844,53.179688 C52.890625,54.300781 53.109375,56.21875 53.890625,58.261719 C50.890625,57.039063 49.609375,55.089844 49.238281,54.421875 C49.070313,54.101563 48.730469,53.910156 48.371094,53.910156 C48.308594,53.910156 48.25,53.910156 48.179688,53.921875 C46.800781,54.179688 45.398438,54.3125 44,54.3125 C37.300781,54.3125 31.449219,51.4375 28.359375,47.1875 C27.890625,46.558594 27.488281,45.898438 27.160156,45.199219 C26.410156,43.660156 26,41.988281 26,40.238281 C26,32.480469 34.070313,26.171875 44,26.171875 Z M11.6875,31.152344 C11.433594,31.148438 11.175781,31.238281 10.980469,31.433594 L9.539063,32.820313 C9.140625,33.203125 9.132813,33.839844 9.515625,34.234375 C9.710938,34.4375 9.972656,34.539063 10.234375,34.539063 C10.484375,34.539063 10.734375,34.445313 10.929688,34.261719 L12.367188,32.871094 C12.765625,32.484375 12.777344,31.851563 12.390625,31.453125 C12.199219,31.257813 11.945313,31.15625 11.6875,31.152344 Z M16.105469,34.566406 C15.71875,34.511719 15.320313,34.6875 15.109375,35.046875 L14.078125,36.761719 C13.792969,37.234375 13.949219,37.847656 14.421875,38.132813 C14.582031,38.230469 14.757813,38.277344 14.9375,38.277344 C15.277344,38.277344 15.605469,38.101563 15.792969,37.789063 L16.824219,36.074219 C17.105469,35.601563 16.953125,34.984375 16.480469,34.703125 C16.359375,34.628906 16.230469,34.585938 16.105469,34.566406 Z M38,35 C36.894531,35 36,35.894531 36,37 C36,38.105469 36.894531,39 38,39 C39.105469,39 40,38.105469 40,37 C40,35.894531 39.105469,35 38,35 Z M50,35 C48.894531,35 48,35.894531 48,37 C48,38.105469 48.894531,39 50,39 C51.105469,39 52,38.105469 52,37 C52,35.894531 51.105469,35 50,35 Z M20.871094,36.75 C20.484375,36.796875 20.144531,37.070313 20.03125,37.46875 L19.480469,39.390625 C19.328125,39.921875 19.636719,40.476563 20.167969,40.628906 C20.261719,40.65625 20.351563,40.667969 20.441406,40.667969 C20.878906,40.667969 21.277344,40.378906 21.40625,39.941406 L21.953125,38.019531 C22.105469,37.488281 21.796875,36.933594 21.265625,36.78125 C21.136719,36.746094 21,36.734375 20.871094,36.75 Z M30.976563,43 C30.847656,43.019531 30.71875,43.0625 30.597656,43.128906 C30.121094,43.40625 29.957031,44.019531 30.234375,44.496094 C31.691406,47.027344 34.335938,49.0625 37.671875,50.222656 C37.78125,50.261719 37.894531,50.28125 38,50.28125 C38.414063,50.28125 38.800781,50.019531 38.945313,49.609375 C39.128906,49.085938 38.851563,48.519531 38.328125,48.335938 C35.445313,47.332031 33.1875,45.613281 31.96875,43.496094 C31.761719,43.136719 31.363281,42.953125 30.976563,43 Z" id="icon" fill="#151515" fill-rule="nonzero"></path>
    </g>
</svg>