<?xml version="1.0" encoding="UTF-8"?>
<svg width="64px" height="64px" viewBox="0 0 64 64" version="1.1" xmlns="http://www.w3.org/2000/svg" xmlns:xlink="http://www.w3.org/1999/xlink">
    <!-- Generator: Sketch 52.3 (67297) - http://www.bohemiancoding.com/sketch -->
    <title>components-icon</title>
    <desc>Created with Sketch.</desc>
    <g id="components-icon" stroke="none" stroke-width="1" fill="none" fill-rule="evenodd">
        <path d="M16,5 C9.382813,5 4,10.382813 4,17 C4,23.617188 9.382813,29 16,29 C22.617188,29 28,23.617188 28,17 C28,10.382813 22.617188,5 16,5 Z M48,5 C41.382813,5 36,10.382813 36,17 C36,23.617188 41.382813,29 48,29 C54.617188,29 60,23.617188 60,17 C60,10.382813 54.617188,5 48,5 Z M16,7 C20.84375,7 24.890625,10.460938 25.804688,15.039063 C25.347656,15.132813 25,15.515625 25,16 L25,18 C25,18.484375 25.347656,18.867188 25.804688,18.960938 C24.890625,23.539063 20.84375,27 16,27 C11.15625,27 7.109375,23.539063 6.195313,18.960938 C6.652344,18.867188 7,18.484375 7,18 L7,16 C7,15.515625 6.652344,15.132813 6.195313,15.039063 C7.109375,10.460938 11.15625,7 16,7 Z M48,7 C50.789063,7 53.3125,8.152344 55.128906,10 L40.871094,10 C42.6875,8.152344 45.210938,7 48,7 Z M39.355469,12 L56.644531,12 C57.34375,13.199219 57.804688,14.554688 57.949219,16 L38.050781,16 C38.195313,14.554688 38.65625,13.199219 39.355469,12 Z M11,15 C10.449219,15 10,15.449219 10,16 L10,18 C10,18.550781 10.449219,19 11,19 C11.550781,19 12,18.550781 12,18 L12,16 C12,15.449219 11.550781,15 11,15 Z M16,15 C15.449219,15 15,15.449219 15,16 L15,18 C15,18.550781 15.449219,19 16,19 C16.550781,19 17,18.550781 17,18 L17,16 C17,15.449219 16.550781,15 16,15 Z M21,15 C20.449219,15 20,15.449219 20,16 L20,18 C20,18.550781 20.449219,19 21,19 C21.550781,19 22,18.550781 22,18 L22,16 C22,15.449219 21.550781,15 21,15 Z M38.050781,18 L57.949219,18 C57.804688,19.445313 57.34375,20.800781 56.648438,22 L39.355469,22 C38.65625,20.800781 38.195313,19.445313 38.050781,18 Z M40.871094,24 L55.128906,24 C53.316406,25.847656 50.789063,27 48,27 C45.210938,27 42.6875,25.847656 40.871094,24 Z M16,35 C12.703125,35 9.71875,36.335938 7.546875,38.492188 C7.535156,38.5 7.527344,38.503906 7.515625,38.515625 C7.503906,38.523438 7.503906,38.535156 7.492188,38.546875 C5.335938,40.71875 4,43.703125 4,47 C4,53.617188 9.382813,59 16,59 C19.296875,59 22.28125,57.664063 24.453125,55.507813 C24.464844,55.5 24.472656,55.496094 24.484375,55.484375 C24.496094,55.476563 24.496094,55.464844 24.503906,55.453125 C26.664063,53.28125 28,50.296875 28,47 C28,40.382813 22.617188,35 16,35 Z M48,35 C41.382813,35 36,40.382813 36,47 C36,53.617188 41.382813,59 48,59 C54.617188,59 60,53.617188 60,47 C60,40.382813 54.617188,35 48,35 Z M16,37 C21.515625,37 26,41.484375 26,47 C26,47.03125 25.996094,47.0625 25.996094,47.09375 L15.90625,37.003906 C15.9375,37.003906 15.96875,37 16,37 Z M48,37 C53.515625,37 58,41.484375 58,47 C58,52.515625 53.515625,57 48,57 C42.484375,57 38,52.515625 38,47 C38,41.484375 42.484375,37 48,37 Z M13.421875,37.347656 L25.652344,49.578125 C25.277344,50.96875 24.625,52.242188 23.738281,53.324219 L9.675781,39.261719 C10.757813,38.375 12.03125,37.722656 13.421875,37.347656 Z M8.261719,40.675781 L22.324219,54.738281 C21.242188,55.625 19.96875,56.277344 18.578125,56.652344 L6.351563,44.421875 C6.722656,43.03125 7.375,41.757813 8.261719,40.675781 Z M6.007813,46.90625 L16.09375,56.996094 C16.0625,56.996094 16.03125,57 16,57 C10.484375,57 6,52.515625 6,47 C6,46.96875 6.007813,46.9375 6.007813,46.90625 Z" id="Mask" fill="#151515" fill-rule="nonzero"></path>
    </g>
</svg>