<?xml version="1.0" encoding="UTF-8"?>
<svg width="64px" height="64px" viewBox="0 0 64 64" version="1.1" xmlns="http://www.w3.org/2000/svg" xmlns:xlink="http://www.w3.org/1999/xlink">
    <!-- Generator: Sketch 52.3 (67297) - http://www.bohemiancoding.com/sketch -->
    <title>responsive-icon</title>
    <desc>Created with Sketch.</desc>
    <g id="responsive-icon" stroke="none" stroke-width="1" fill="none" fill-rule="evenodd">
        <path d="M3,6 C1.347656,6 0,7.347656 0,9 L0,45 C0,46.652344 1.347656,48 3,48 L26,48 L26,52 L23.65625,52 C22.320313,52 21.066406,52.519531 20.121094,53.464844 L17.292969,56.292969 C17.007813,56.578125 16.921875,57.007813 17.078125,57.382813 C17.230469,57.753906 17.597656,58 18,58 L46,58 C46.402344,58 46.769531,57.753906 46.921875,57.382813 C47.078125,57.007813 46.992188,56.578125 46.707031,56.292969 L43.878906,53.464844 C42.933594,52.519531 41.679688,52 40.34375,52 L38,52 L38,48 L61,48 C62.652344,48 64,46.652344 64,45 L64,9 C64,7.347656 62.652344,6 61,6 L3,6 Z M3,8 L61,8 C61.550781,8 62,8.449219 62,9 L62,45 C62,45.550781 61.550781,46 61,46 L3,46 C2.449219,46 2,45.550781 2,45 L2,9 C2,8.449219 2.449219,8 3,8 Z M9,12 C7.347656,12 6,13.347656 6,15 L6,35 C6,36.652344 7.347656,38 9,38 L19,38 C20.652344,38 22,36.652344 22,35 L22,15 C22,13.347656 20.652344,12 19,12 L9,12 Z M29,12 C27.347656,12 26,13.347656 26,15 L26,35 C26,36.652344 27.347656,38 29,38 L55,38 C56.652344,38 58,36.652344 58,35 L58,15 C58,13.347656 56.652344,12 55,12 L29,12 Z M9,14 L19,14 C19.550781,14 20,14.449219 20,15 L20,32 L8,32 L8,15 C8,14.449219 8.449219,14 9,14 Z M29,14 L52,14 L52,20 C52,20.554688 52.449219,21 53,21 C53.550781,21 54,20.554688 54,20 L54,14 L55,14 C55.550781,14 56,14.449219 56,15 L56,35 C56,35.550781 55.550781,36 55,36 L54,36 L54,30 C54,29.445313 53.550781,29 53,29 C52.449219,29 52,29.445313 52,30 L52,36 L29,36 C28.449219,36 28,35.550781 28,35 L28,15 C28,14.449219 28.449219,14 29,14 Z M13,15 C12.449219,15 12,15.445313 12,16 C12,16.554688 12.449219,17 13,17 L15,17 C15.550781,17 16,16.554688 16,16 C16,15.445313 15.550781,15 15,15 L13,15 Z M30,23 C29.449219,23 29,23.445313 29,24 L29,26 C29,26.554688 29.449219,27 30,27 C30.550781,27 31,26.554688 31,26 L31,24 C31,23.445313 30.550781,23 30,23 Z M53,23 C52.449219,23 52,23.445313 52,24 L52,26 C52,26.554688 52.449219,27 53,27 C53.550781,27 54,26.554688 54,26 L54,24 C54,23.445313 53.550781,23 53,23 Z M8,34 L20,34 L20,35 C20,35.550781 19.550781,36 19,36 L9,36 C8.449219,36 8,35.550781 8,35 L8,34 Z M7,40 C6.449219,40 6,40.445313 6,41 L6,43 C6,43.554688 6.449219,44 7,44 C7.550781,44 8,43.554688 8,43 L8,41 C8,40.445313 7.550781,40 7,40 Z M12,40 C11.449219,40 11,40.445313 11,41 L11,43 C11,43.554688 11.449219,44 12,44 C12.550781,44 13,43.554688 13,43 L13,41 C13,40.445313 12.550781,40 12,40 Z M17,40 C16.449219,40 16,40.445313 16,41 L16,43 C16,43.554688 16.449219,44 17,44 C17.550781,44 18,43.554688 18,43 L18,41 C18,40.445313 17.550781,40 17,40 Z M22,40 C21.449219,40 21,40.445313 21,41 L21,43 C21,43.554688 21.449219,44 22,44 C22.550781,44 23,43.554688 23,43 L23,41 C23,40.445313 22.550781,40 22,40 Z M27,40 C26.449219,40 26,40.445313 26,41 L26,43 C26,43.554688 26.449219,44 27,44 C27.550781,44 28,43.554688 28,43 L28,41 C28,40.445313 27.550781,40 27,40 Z M32,40 C31.449219,40 31,40.445313 31,41 L31,43 C31,43.554688 31.449219,44 32,44 C32.550781,44 33,43.554688 33,43 L33,41 C33,40.445313 32.550781,40 32,40 Z M37,40 C36.449219,40 36,40.445313 36,41 L36,43 C36,43.554688 36.449219,44 37,44 C37.550781,44 38,43.554688 38,43 L38,41 C38,40.445313 37.550781,40 37,40 Z M42,40 C41.449219,40 41,40.445313 41,41 L41,43 C41,43.554688 41.449219,44 42,44 C42.550781,44 43,43.554688 43,43 L43,41 C43,40.445313 42.550781,40 42,40 Z M47,40 C46.449219,40 46,40.445313 46,41 L46,43 C46,43.554688 46.449219,44 47,44 C47.550781,44 48,43.554688 48,43 L48,41 C48,40.445313 47.550781,40 47,40 Z M52,40 C51.449219,40 51,40.445313 51,41 L51,43 C51,43.554688 51.449219,44 52,44 C52.550781,44 53,43.554688 53,43 L53,41 C53,40.445313 52.550781,40 52,40 Z M57,40 C56.449219,40 56,40.445313 56,41 L56,43 C56,43.554688 56.449219,44 57,44 C57.550781,44 58,43.554688 58,43 L58,41 C58,40.445313 57.550781,40 57,40 Z M28,48 L36,48 L36,52 L28,52 L28,48 Z M23.65625,54 L40.34375,54 C41.132813,54 41.90625,54.320313 42.464844,54.878906 L43.585938,56 L20.414063,56 L21.535156,54.878906 C22.09375,54.320313 22.867188,54 23.65625,54 Z" id="icon" fill="#151515" fill-rule="nonzero"></path>
    </g>
</svg>