<?xml version="1.0" encoding="UTF-8"?>
<svg width="64px" height="64px" viewBox="0 0 64 64" version="1.1" xmlns="http://www.w3.org/2000/svg" xmlns:xlink="http://www.w3.org/1999/xlink">
    <!-- Generator: Sketch 52.3 (67297) - http://www.bohemiancoding.com/sketch -->
    <title>design-icon</title>
    <desc>Created with Sketch.</desc>
    <g id="design-icon" stroke="none" stroke-width="1" fill="none" fill-rule="evenodd">
        <path d="M17.300781,2.929688 C16.480469,2.945313 15.722656,3.28125 15.160156,3.882813 C11.339844,7.984375 2.402344,18.765625 2,30.222656 C1.972656,31.019531 1.988281,31.839844 2.042969,32.664063 C2.648438,41.464844 7.742188,46.246094 12.972656,47.511719 C13.476563,50.839844 14.226563,54.429688 15.328125,58.269531 C15.328125,58.273438 15.347656,58.347656 15.347656,58.351563 C15.46875,58.789063 15.855469,59.046875 16.28125,59.046875 C16.375,59.046875 16.472656,59.035156 16.566406,59.011719 C17.097656,58.863281 17.402344,58.28125 17.257813,57.75 L17.222656,57.625 C16.230469,54.144531 15.523438,50.875 15.035156,47.824219 C15.203125,47.832031 15.375,47.855469 15.539063,47.859375 C15.644531,47.863281 15.746094,47.863281 15.851563,47.863281 C17.652344,47.863281 19.28125,47.488281 20.753906,46.84375 C21.554688,48.640625 22.640625,50.308594 23.9375,51.785156 C21.65625,54.84375 19.554688,58.023438 17.644531,61.316406 C17.367188,61.796875 17.539063,62.417969 18.019531,62.691406 C18.496094,62.964844 19.097656,62.800781 19.375,62.324219 C21.191406,59.1875 23.191406,56.15625 25.351563,53.242188 C27.480469,55.21875 30.023438,56.734375 32.773438,57.5625 C34.433594,58.0625 36.121094,58.3125 37.804688,58.3125 C41.628906,58.3125 45.4375,57.03125 48.875,54.535156 C49.617188,53.996094 50.320313,53.414063 50.972656,52.808594 C60.871094,43.582031 61.691406,25.1875 61.707031,19.765625 C61.714844,18.375 60.625,17.21875 59.234375,17.128906 C54.941406,16.867188 40.476563,16.480469 30.234375,22.308594 C28.386719,13.625 22.371094,6.71875 19.46875,3.8125 C18.890625,3.230469 18.105469,2.890625 17.300781,2.929688 Z M17.332031,4.929688 C17.652344,4.941406 17.863281,5.03125 18.054688,5.222656 C21.40625,8.582031 29.15625,17.550781 28.78125,28.167969 C28.757813,28.910156 28.671875,29.667969 28.585938,30.414063 C27.257813,42.003906 20.761719,45.953125 15.585938,45.859375 C15.304688,45.851563 15.023438,45.828125 14.738281,45.796875 C14.164063,41.46875 14.035156,37.636719 14.144531,34.347656 C14.179688,34.324219 14.21875,34.308594 14.25,34.277344 L17.378906,31.144531 C17.773438,30.753906 17.773438,30.125 17.378906,29.734375 C16.988281,29.339844 16.359375,29.339844 15.96875,29.734375 L14.3125,31.386719 C14.414063,30.171875 14.542969,29.042969 14.691406,28.03125 C14.769531,27.484375 14.394531,26.976563 13.847656,26.894531 C13.296875,26.804688 12.792969,27.195313 12.714844,27.742188 C12.28125,30.710938 11.984375,34.542969 12.160156,39.125 L10.867188,37.828125 C10.476563,37.433594 9.84375,37.433594 9.453125,37.828125 C9.0625,38.21875 9.0625,38.847656 9.453125,39.238281 L12.230469,42.015625 C12.261719,42.046875 12.300781,42.0625 12.335938,42.089844 C12.421875,43.144531 12.535156,44.238281 12.671875,45.359375 C8.46875,43.996094 4.539063,39.839844 4.039063,32.527344 C3.984375,31.773438 3.972656,31.023438 4,30.296875 C4.378906,19.511719 12.953125,9.183594 16.625,5.242188 C16.8125,5.046875 17.0625,4.933594 17.332031,4.929688 Z M54.238281,19.003906 C56.347656,18.984375 58.050781,19.0625 59.109375,19.125 C59.453125,19.148438 59.707031,19.417969 59.707031,19.761719 C59.691406,24.980469 58.917969,42.671875 49.609375,51.347656 C49.015625,51.898438 48.375,52.429688 47.699219,52.917969 C43.269531,56.136719 38.175781,57.101563 33.351563,55.644531 C30.832031,54.886719 28.503906,53.488281 26.574219,51.65625 C27.882813,49.964844 29.234375,48.300781 30.65625,46.6875 L39.21875,46.6875 C39.769531,46.6875 40.21875,46.242188 40.21875,45.6875 C40.21875,45.136719 39.769531,44.6875 39.21875,44.6875 L32.5,44.6875 C34.632813,42.40625 36.871094,40.199219 39.238281,38.105469 L44.183594,33.722656 C44.59375,33.359375 44.632813,32.726563 44.265625,32.3125 C43.902344,31.898438 43.269531,31.863281 42.855469,32.230469 L37.910156,36.609375 C37.023438,37.394531 36.15625,38.203125 35.296875,39.019531 L35.296875,35.855469 C35.296875,35.300781 34.851563,34.855469 34.296875,34.855469 C33.746094,34.855469 33.296875,35.300781 33.296875,35.855469 L33.296875,40.769531 C33.296875,40.835938 33.324219,40.890625 33.335938,40.949219 C32.035156,42.253906 30.765625,43.582031 29.542969,44.949219 C29.507813,44.980469 29.476563,45.019531 29.441406,45.054688 C27.960938,46.714844 26.546875,48.433594 25.1875,50.183594 C24.097656,48.886719 23.191406,47.4375 22.519531,45.882813 C27.167969,42.851563 29.871094,36.753906 30.574219,30.628906 C30.660156,29.859375 30.75,29.058594 30.78125,28.234375 C30.824219,26.9375 30.746094,25.667969 30.589844,24.421875 C37.917969,19.964844 47.910156,19.066406 54.238281,19.003906 Z M14.9375,21 C14.550781,21.023438 14.199219,21.277344 14.058594,21.664063 C14.046875,21.691406 13.800781,22.390625 13.488281,23.683594 C13.355469,24.21875 13.6875,24.757813 14.222656,24.890625 C14.300781,24.910156 14.382813,24.917969 14.460938,24.917969 C14.910156,24.917969 15.320313,24.609375 15.433594,24.152344 C15.71875,22.972656 15.941406,22.34375 15.941406,22.335938 C16.128906,21.816406 15.855469,21.242188 15.335938,21.058594 C15.203125,21.011719 15.070313,20.992188 14.9375,21 Z M54.667969,21.09375 C54.074219,21.105469 53.105469,21.132813 51.855469,21.21875 C51.300781,21.257813 50.886719,21.738281 50.921875,22.285156 C50.960938,22.816406 51.398438,23.21875 51.921875,23.21875 C51.941406,23.21875 51.964844,23.21875 51.988281,23.21875 C53.203125,23.132813 54.136719,23.101563 54.707031,23.09375 C55.261719,23.082031 55.699219,22.621094 55.6875,22.070313 C55.675781,21.523438 55.230469,21.09375 54.6875,21.09375 L54.667969,21.09375 Z M46.777344,21.761719 C42.996094,22.300781 39.496094,23.125 36.371094,24.210938 C35.847656,24.390625 35.574219,24.960938 35.753906,25.484375 C35.898438,25.894531 36.285156,26.15625 36.699219,26.15625 C36.808594,26.15625 36.917969,26.136719 37.027344,26.097656 C40.03125,25.058594 43.40625,24.261719 47.058594,23.738281 C47.605469,23.664063 47.984375,23.15625 47.90625,22.609375 C47.828125,22.0625 47.320313,21.679688 46.777344,21.761719 Z M49.222656,40.753906 C48.835938,40.753906 48.464844,40.980469 48.300781,41.363281 C48.085938,41.871094 48.320313,42.460938 48.828125,42.675781 L50.816406,43.519531 C50.945313,43.574219 51.074219,43.597656 51.207031,43.597656 C51.597656,43.597656 51.96875,43.367188 52.128906,42.988281 C52.34375,42.480469 52.105469,41.894531 51.597656,41.675781 L49.613281,40.832031 C49.488281,40.78125 49.355469,40.757813 49.222656,40.753906 Z M46.234375,45.1875 C45.980469,45.1875 45.722656,45.28125 45.527344,45.480469 C45.136719,45.871094 45.136719,46.5 45.527344,46.890625 L47.050781,48.417969 C47.246094,48.609375 47.5,48.707031 47.757813,48.707031 C48.015625,48.707031 48.269531,48.609375 48.464844,48.417969 C48.855469,48.023438 48.855469,47.394531 48.464844,47 L46.941406,45.480469 C46.746094,45.28125 46.488281,45.1875 46.234375,45.1875 Z M41.535156,48.121094 C41.40625,48.117188 41.273438,48.140625 41.144531,48.191406 C40.632813,48.398438 40.386719,48.980469 40.59375,49.496094 L41.460938,51.640625 C41.617188,52.03125 41.992188,52.265625 42.386719,52.265625 C42.511719,52.265625 42.640625,52.242188 42.761719,52.191406 C43.273438,51.984375 43.519531,51.402344 43.3125,50.890625 L42.449219,48.746094 C42.292969,48.359375 41.925781,48.125 41.535156,48.121094 Z M36.335938,49.128906 C35.78125,49.128906 35.335938,49.574219 35.335938,50.128906 L35.335938,52.441406 C35.335938,52.996094 35.78125,53.441406 36.335938,53.441406 C36.890625,53.441406 37.335938,52.996094 37.335938,52.441406 L37.335938,50.128906 C37.335938,49.574219 36.890625,49.128906 36.335938,49.128906 Z" id="icon" fill="#151515" fill-rule="nonzero"></path>
    </g>
</svg>