<?xml version="1.0" encoding="UTF-8"?>
<svg width="64px" height="64px" viewBox="0 0 64 64" version="1.1" xmlns="http://www.w3.org/2000/svg" xmlns:xlink="http://www.w3.org/1999/xlink">
    <!-- Generator: Sketch 52.3 (67297) - http://www.bohemiancoding.com/sketch -->
    <title>interactions-icon</title>
    <desc>Created with Sketch.</desc>
    <g id="interactions-icon" stroke="none" stroke-width="1" fill="none" fill-rule="evenodd">
        <path d="M44.167969,0.703125 C43.808594,0.707031 43.449219,0.726563 43.089844,0.75 C37.363281,1.15625 31.824219,3.761719 27.5,8.085938 C21.648438,13.9375 18.847656,21.085938 19.796875,27.703125 C20.171875,30.28125 20.066406,32.902344 19.496094,35.492188 L19.460938,35.640625 C18.957031,37.910156 17.917969,40.058594 16.453125,41.859375 L15.785156,42.683594 C14.929688,42.617188 14.046875,42.882813 13.421875,43.507813 L1.523438,55.40625 C0.578125,56.347656 0.0585938,57.605469 0.0585938,58.941406 C0.0585938,60.277344 0.578125,61.53125 1.523438,62.476563 C2.464844,63.421875 3.71875,63.941406 5.054688,63.941406 C6.394531,63.941406 7.648438,63.421875 8.59375,62.476563 L20.488281,50.578125 C21.054688,50.011719 21.371094,49.257813 21.371094,48.457031 C21.371094,48.367188 21.351563,48.28125 21.34375,48.191406 L22.125,47.558594 C23.933594,46.089844 26.089844,45.046875 28.363281,44.546875 L28.628906,44.488281 C31.199219,43.921875 33.773438,43.816406 36.289063,44.175781 C42.925781,45.121094 50.089844,42.324219 55.910156,36.5 C60.238281,32.175781 62.84375,26.636719 63.25,20.910156 C63.65625,15.128906 61.78125,9.84375 57.96875,6.03125 C54.394531,2.457031 49.523438,0.585938 44.167969,0.703125 Z M10.753906,2.003906 C8.441406,2.070313 6.265625,3.003906 4.636719,4.636719 C3.003906,6.265625 2.070313,8.441406 2.003906,10.753906 C1.9375,13.253906 2.871094,15.597656 4.636719,17.363281 C4.851563,17.578125 5.070313,17.777344 5.300781,17.96875 C6.90625,19.289063 8.890625,20 10.996094,20 L11,20 C11.082031,20 11.164063,20 11.25,20 C13.558594,19.929688 15.730469,18.996094 17.363281,17.363281 C18.996094,15.730469 19.929688,13.558594 20,11.246094 C20.0625,8.75 19.128906,6.402344 17.363281,4.636719 C15.597656,2.871094 13.234375,1.9375 10.753906,2.003906 Z M45.152344,2.703125 C49.582031,2.824219 53.582031,4.472656 56.554688,7.445313 C59.953125,10.839844 61.621094,15.574219 61.253906,20.769531 C60.882813,26.015625 58.480469,31.105469 54.5,35.089844 C49.125,40.460938 42.589844,43.054688 36.574219,42.195313 C33.824219,41.800781 31.003906,41.917969 28.203125,42.535156 L27.9375,42.59375 C25.359375,43.160156 22.910156,44.34375 20.863281,46.007813 L20.480469,46.324219 L17.675781,43.519531 L18,43.125 C19.664063,41.082031 20.84375,38.644531 21.410156,36.074219 L21.445313,35.925781 C22.070313,33.101563 22.183594,30.238281 21.777344,27.421875 C20.914063,21.429688 23.515625,14.898438 28.910156,9.5 C32.894531,5.515625 37.984375,3.113281 43.230469,2.742188 C43.878906,2.699219 44.519531,2.6875 45.152344,2.703125 Z M11.828125,4.054688 C11.855469,4.058594 11.882813,4.0625 11.910156,4.0625 C12.25,4.109375 12.582031,4.175781 12.90625,4.265625 C12.933594,4.273438 12.960938,4.277344 12.988281,4.285156 C13.320313,4.382813 13.636719,4.507813 13.949219,4.65625 C14.007813,4.679688 14.0625,4.707031 14.121094,4.734375 C14.421875,4.886719 14.710938,5.058594 14.988281,5.25 C15.039063,5.285156 15.085938,5.324219 15.132813,5.359375 C15.417969,5.566406 15.691406,5.792969 15.949219,6.050781 C16.203125,6.304688 16.425781,6.578125 16.636719,6.859375 C16.675781,6.914063 16.71875,6.96875 16.757813,7.023438 C16.949219,7.304688 17.121094,7.59375 17.269531,7.894531 C17.296875,7.949219 17.324219,8.007813 17.347656,8.0625 C17.488281,8.363281 17.609375,8.671875 17.703125,8.988281 C17.710938,9.007813 17.71875,9.027344 17.726563,9.046875 C17.820313,9.378906 17.886719,9.71875 17.933594,10.0625 C17.9375,10.097656 17.941406,10.136719 17.945313,10.171875 C16.390625,9.992188 14.957031,9.300781 13.828125,8.171875 C12.699219,7.042969 12.007813,5.609375 11.828125,4.054688 Z M9.828125,4.109375 C10.027344,6.175781 10.917969,8.089844 12.414063,9.585938 C13.910156,11.082031 15.824219,11.980469 17.890625,12.179688 C17.648438,13.601563 16.980469,14.917969 15.949219,15.949219 C14.914063,16.984375 13.597656,17.652344 12.171875,17.894531 C11.972656,15.828125 11.082031,13.910156 9.585938,12.414063 C8.09375,10.921875 6.164063,10.035156 4.109375,9.832031 C4.347656,8.402344 5.015625,7.085938 6.050781,6.050781 C7.085938,5.015625 8.402344,4.347656 9.828125,4.109375 Z M44.671875,5.429688 C41.894531,5.359375 39.019531,5.988281 36.332031,7.304688 C36.269531,7.324219 36.214844,7.359375 36.15625,7.394531 C34.320313,8.316406 32.574219,9.542969 31.015625,11.097656 C23.625,18.492188 22.917969,27.792969 29.15625,34.414063 C29.175781,34.441406 29.1875,34.46875 29.210938,34.496094 C29.226563,34.507813 29.246094,34.515625 29.261719,34.527344 C29.347656,34.617188 29.421875,34.714844 29.511719,34.804688 C32.507813,37.800781 36.113281,39.359375 40.015625,39.359375 C40.5,39.359375 40.988281,39.335938 41.480469,39.285156 C45.585938,38.886719 49.757813,36.761719 53.21875,33.296875 C58.160156,28.359375 59.910156,21.566406 58.324219,15.847656 C58.308594,15.746094 58.285156,15.648438 58.238281,15.558594 C57.574219,13.339844 56.417969,11.289063 54.722656,9.59375 C54.636719,9.503906 54.539063,9.433594 54.453125,9.351563 C54.4375,9.332031 54.429688,9.308594 54.414063,9.292969 C54.382813,9.261719 54.347656,9.25 54.3125,9.226563 C51.660156,6.773438 48.246094,5.523438 44.671875,5.429688 Z M44.25,7.402344 C44.597656,7.402344 44.933594,7.421875 45.277344,7.445313 L41.273438,11.449219 L38.394531,8.570313 C40.316406,7.804688 42.308594,7.402344 44.25,7.402344 Z M47.707031,7.84375 C49.347656,8.269531 50.886719,9.003906 52.234375,10.0625 L50.375,11.921875 L49.339844,10.882813 C48.945313,10.492188 48.316406,10.492188 47.921875,10.882813 C47.53125,11.273438 47.53125,11.90625 47.921875,12.296875 L48.960938,13.332031 L46.058594,16.234375 L42.6875,12.863281 L47.707031,7.84375 Z M36.46875,9.476563 L39.859375,12.863281 L37.03125,15.695313 L33.171875,11.839844 C34.210938,10.910156 35.3125,10.113281 36.46875,9.476563 Z M53.6875,11.433594 C54.835938,12.691406 55.683594,14.144531 56.214844,15.71875 L55.191406,16.738281 L51.789063,13.332031 L53.6875,11.433594 Z M4.054688,11.828125 C5.609375,12.007813 7.042969,12.699219 8.171875,13.828125 C9.300781,14.957031 9.992188,16.390625 10.171875,17.941406 C10.125,17.933594 10.070313,17.929688 10.019531,17.921875 C9.695313,17.875 9.371094,17.816406 9.054688,17.726563 C9.023438,17.714844 8.988281,17.703125 8.953125,17.691406 C8.648438,17.601563 8.351563,17.484375 8.0625,17.351563 C8.007813,17.324219 7.949219,17.300781 7.890625,17.269531 C7.589844,17.121094 7.300781,16.949219 7.023438,16.753906 C6.96875,16.71875 6.914063,16.675781 6.863281,16.640625 C6.578125,16.429688 6.304688,16.203125 6.050781,15.949219 C5.796875,15.695313 5.574219,15.421875 5.363281,15.140625 C5.324219,15.085938 5.28125,15.03125 5.242188,14.972656 C5.050781,14.695313 4.878906,14.40625 4.726563,14.109375 C4.703125,14.050781 4.679688,13.996094 4.652344,13.9375 C4.511719,13.636719 4.390625,13.328125 4.296875,13.007813 C4.289063,12.992188 4.28125,12.972656 4.273438,12.953125 C4.179688,12.621094 4.113281,12.28125 4.070313,11.933594 C4.0625,11.898438 4.0625,11.863281 4.054688,11.828125 Z M31.75,13.242188 L35.613281,17.109375 L32.75,19.972656 L29.296875,16.527344 C29.996094,15.363281 30.820313,14.257813 31.75,13.242188 Z M41.273438,14.277344 L44.644531,17.648438 L41.8125,20.480469 L38.441406,17.109375 L41.273438,14.277344 Z M50.375,14.746094 L53.78125,18.152344 L50.878906,21.054688 L47.472656,17.648438 L50.375,14.746094 Z M56.75,18.007813 C57.132813,20.574219 56.78125,23.3125 55.742188,25.921875 L52.292969,22.46875 L56.75,18.007813 Z M28.316406,18.375 L31.335938,21.390625 L27.046875,25.679688 C26.769531,23.199219 27.265625,20.699219 28.316406,18.375 Z M37.03125,18.523438 L40.402344,21.894531 L37.53125,24.761719 L34.160156,21.390625 L37.03125,18.523438 Z M46.058594,19.0625 L49.464844,22.46875 L42.355469,29.578125 L38.949219,26.171875 L41.8125,23.308594 L43.246094,24.738281 C43.441406,24.933594 43.695313,25.03125 43.953125,25.03125 C44.210938,25.03125 44.464844,24.933594 44.660156,24.738281 C45.050781,24.347656 45.050781,23.71875 44.660156,23.328125 L43.230469,21.894531 L46.058594,19.0625 Z M32.75,22.800781 L36.121094,26.171875 L33.253906,29.039063 L29.882813,25.671875 L32.75,22.800781 Z M50.878906,23.882813 L54.839844,27.84375 C54.199219,29.003906 53.410156,30.109375 52.480469,31.144531 L48.046875,26.714844 L50.878906,23.882813 Z M28.46875,27.082031 L31.839844,30.453125 L29.96875,32.328125 C28.816406,30.941406 28.015625,29.492188 27.535156,28.015625 L28.46875,27.082031 Z M37.53125,27.589844 L40.9375,30.996094 L35.589844,36.34375 C35.550781,36.378906 35.535156,36.429688 35.503906,36.46875 C34.023438,35.871094 32.628906,34.964844 31.347656,33.773438 L33.253906,31.871094 L34.53125,33.144531 C34.722656,33.339844 34.980469,33.4375 35.234375,33.4375 C35.492188,33.4375 35.75,33.339844 35.941406,33.144531 C36.335938,32.753906 36.335938,32.121094 35.941406,31.730469 L34.667969,30.453125 L37.53125,27.589844 Z M46.632813,28.125 L51.070313,32.566406 C50.03125,33.519531 48.933594,34.34375 47.800781,35.027344 L43.765625,30.992188 L46.632813,28.125 Z M42.351563,32.40625 L45.941406,36 C44.410156,36.691406 42.839844,37.144531 41.285156,37.296875 C40.042969,37.417969 38.832031,37.339844 37.65625,37.105469 L42.351563,32.40625 Z M25.6875,34.5625 C25.433594,34.5625 25.175781,34.660156 24.980469,34.855469 C24.589844,35.246094 24.589844,35.878906 24.980469,36.269531 L27.699219,38.988281 C27.894531,39.183594 28.148438,39.28125 28.40625,39.28125 C28.664063,39.28125 28.917969,39.183594 29.113281,38.988281 C29.503906,38.597656 29.503906,37.964844 29.113281,37.574219 L26.394531,34.855469 C26.199219,34.660156 25.941406,34.5625 25.6875,34.5625 Z M15.542969,44.628906 C15.808594,44.628906 16.0625,44.734375 16.25,44.921875 L19.078125,47.75 C19.265625,47.9375 19.371094,48.191406 19.371094,48.457031 C19.371094,48.726563 19.269531,48.976563 19.078125,49.164063 L7.179688,61.0625 C6.046875,62.195313 4.070313,62.195313 2.9375,61.0625 C2.371094,60.496094 2.058594,59.742188 2.058594,58.941406 C2.058594,58.140625 2.371094,57.386719 2.9375,56.820313 L14.839844,44.921875 C15.027344,44.734375 15.273438,44.628906 15.542969,44.628906 Z" id="icon" fill="#151515" fill-rule="nonzero"></path>
    </g>
</svg>